HIERARCHY
ROOT root
{
  OFFSET 0 93.2929 0
  CHANNELS 6 Xposition Yposition Zposition Zrotation Xrotation Yrotation
  JOINT torso_1
  {
    OFFSET 0 5.07867 -1.15138
    CHANNELS 6 Xposition Yposition Zposition Zrotation Xrotation Yrotation
    JOINT torso_2
    {
      OFFSET 0 5.61661 1.07143
      CHANNELS 6 Xposition Yposition Zposition Zrotation Xrotation Yrotation
      JOINT torso_3
      {
        OFFSET -1.02604e-17 5.98978 0.11501
        CHANNELS 6 Xposition Yposition Zposition Zrotation Xrotation Yrotation
        JOINT torso_4
        {
          OFFSET -1.10457e-17 6.50583 -0.443523
          CHANNELS 6 Xposition Yposition Zposition Zrotation Xrotation Yrotation
          JOINT torso_5
          {
            OFFSET -1.97295e-17 7.60548 -1.50593
            CHANNELS 6 Xposition Yposition Zposition Zrotation Xrotation Yrotation
            JOINT torso_6
            {
              OFFSET -2.53307e-17 9.49737 -0.914492
              CHANNELS 6 Xposition Yposition Zposition Zrotation Xrotation Yrotation
              JOINT torso_7
              {
                OFFSET -2.90401e-17 10.5513 1.57691
                CHANNELS 6 Xposition Yposition Zposition Zrotation Xrotation Yrotation
                JOINT neck_1
                {
                  OFFSET -1.29193e-17 4.78644 0.715339
                  CHANNELS 6 Xposition Yposition Zposition Zrotation Xrotation Yrotation
                  JOINT neck_2
                  {
                    OFFSET -1.8116e-17 4.82109 0.421791
                    CHANNELS 6 Xposition Yposition Zposition Zrotation Xrotation Yrotation
                    JOINT head
                    {
                      OFFSET -2.00958e-17 4.83041 0.765062
                      CHANNELS 6 Xposition Yposition Zposition Zrotation Xrotation Yrotation
                      End Site
                      {
                        OFFSET 0 0.1 0
                      }
                    }
                  }
                }
                JOINT l_shoulder
                {
                  OFFSET 1.23299 -7.60731 7.53374
                  CHANNELS 6 Xposition Yposition Zposition Zrotation Xrotation Yrotation
                  JOINT l_up_arm
                  {
                    OFFSET 12.9547 3.2495 -3.26872
                    CHANNELS 6 Xposition Yposition Zposition Zrotation Xrotation Yrotation
                    JOINT l_low_arm
                    {
                      OFFSET 29.2081 0.0598081 0.137039
                      CHANNELS 6 Xposition Yposition Zposition Zrotation Xrotation Yrotation
                      JOINT l_hand
                      {
                        OFFSET 24.234 0.0496219 0.113701
                        CHANNELS 6 Xposition Yposition Zposition Zrotation Xrotation Yrotation
                        End Site
                        {
                          OFFSET 0.1 0 0
                        }
                      }
                    }
                  }
                }
                JOINT r_shoulder
                {
                  OFFSET -1.23299 -7.60729 7.53365
                  CHANNELS 6 Xposition Yposition Zposition Zrotation Xrotation Yrotation
                  JOINT r_up_arm
                  {
                    OFFSET -12.9547 3.2495 -3.26872
                    CHANNELS 6 Xposition Yposition Zposition Zrotation Xrotation Yrotation
                    JOINT r_low_arm
                    {
                      OFFSET -29.2081 0.0598081 0.137039
                      CHANNELS 6 Xposition Yposition Zposition Zrotation Xrotation Yrotation
                      JOINT r_hand
                      {
                        OFFSET -24.234 0.0496218 0.113702
                        CHANNELS 6 Xposition Yposition Zposition Zrotation Xrotation Yrotation
                        End Site
                        {
                          OFFSET -0.1 0 0
                        }
                      }
                    }
                  }
                }
              }
            }
          }
        }
      }
    }
  }
  JOINT l_up_leg
  {
    OFFSET 9.23673 -4.20556 2.0327
    CHANNELS 6 Xposition Yposition Zposition Zrotation Xrotation Yrotation
    JOINT l_low_leg
    {
      OFFSET -0.852353 -38.7721 -0.655187
      CHANNELS 6 Xposition Yposition Zposition Zrotation Xrotation Yrotation
      JOINT l_foot
      {
        OFFSET -2.32622 -40.4017 -6.04875
        CHANNELS 6 Xposition Yposition Zposition Zrotation Xrotation Yrotation
        JOINT l_toes
        {
          OFFSET 0.779096 -9.8844 12.4959
          CHANNELS 6 Xposition Yposition Zposition Zrotation Xrotation Yrotation
          End Site
          {
            OFFSET 0 0 0.1
          }
        }
      }
    }
  }
  JOINT r_up_leg
  {
    OFFSET -9.23673 -4.20556 2.0327
    CHANNELS 6 Xposition Yposition Zposition Zrotation Xrotation Yrotation
    JOINT r_low_leg
    {
      OFFSET 0.852353 -38.7721 -0.655187
      CHANNELS 6 Xposition Yposition Zposition Zrotation Xrotation Yrotation
      JOINT r_foot
      {
        OFFSET 2.32622 -40.4017 -6.04875
        CHANNELS 6 Xposition Yposition Zposition Zrotation Xrotation Yrotation
        JOINT r_toes
        {
          OFFSET -0.779096 -9.8844 12.4959
          CHANNELS 6 Xposition Yposition Zposition Zrotation Xrotation Yrotation
          End Site
          {
            OFFSET 0 0 0.1
          }
        }
      }
    }
  }
}
MOTION
Frames: 7
Frame Time: 0.016667
0 93.2929 0 -0 0 -0 0 5.07867 -1.15138 -0 0 -0 0 5.61661 1.07143 -0 0 -0 -1.02604e-17 5.98978 0.11501 -0 0 -0 -1.10457e-17 6.50583 -0.443523 -0 0 -0 -1.97295e-17 7.60548 -1.50593 -0 0 -0 -2.53307e-17 9.49737 -0.914492 -0 0 -0 -2.90401e-17 10.5513 1.57691 -0 0 -0 -1.29193e-17 4.78644 0.715339 -0 0 -0 -1.8116e-17 4.82109 0.421791 -0 0 -0 -2.00958e-17 4.83041 0.765062 -0 0 -0 1.23299 -7.60731 7.53374 -0 0 -0 12.9547 3.2495 -3.26872 -0 0 -0 29.2081 0.0598081 0.137039 -0 0 -0 24.234 0.0496219 0.113701 -0 0 -0 -1.23299 -7.60729 7.53365 -0 0 -0 -12.9547 3.2495 -3.26872 -0 0 -0 -29.2081 0.0598081 0.137039 -0 0 -0 -24.234 0.0496218 0.113702 -0 0 -0 9.23673 -4.20556 2.0327 -0 0 -0 -0.852353 -38.7721 -0.655187 -0 0 -0 -2.32622 -40.4017 -6.04875 -0 0 -0 0.779096 -9.8844 12.4959 -0 0 -0 -9.23673 -4.20556 2.0327 -0 0 -0 0.852353 -38.7721 -0.655187 -0 0 -0 2.32622 -40.4017 -6.04875 -0 0 -0 -0.779096 -9.8844 12.4959 -0 0 -0 
2.17252 91.7228 5.59786 7.13142 -6.06858 -1.12385 0 5.07867 -1.15138 -1.96594 0.721129 0.389326 0 5.61661 1.07143 -1.53692 0.571253 0.108258 -1.02604e-17 5.98978 0.11501 -1.17377 0.622042 0.180299 -1.10457e-17 6.50583 -0.443523 -0.79083 0.279918 0.16055 -1.97295e-17 7.60548 -1.50593 -0.333037 0.0788415 0.185472 -2.53307e-17 9.49737 -0.914492 0.19185 -0.729159 -0.0797147 -2.90401e-17 10.5513 1.57691 -0.0310253 0.867676 -0.120121 -1.29193e-17 4.78644 0.715339 0.706066 5.55704 -0.371857 -1.8116e-17 4.82109 0.421791 -0.241561 -3.5555 -0.376609 -2.00958e-17 4.83041 0.765062 -1.18667 -4.17143 1.69038 1.23299 -7.60731 7.53374 5.92194 3.06215 0.428657 12.9547 3.2495 -3.26872 -91.0409 24.3757 5.78468 29.2081 0.0598081 0.137039 2.26592 -0.206073 -10.9828 24.234 0.0496219 0.113701 -4.07662 -21.0845 -1.96092 -1.23299 -7.60729 7.53365 -8.49251 2.76289 -1.95476 -12.9547 3.2495 -3.26872 91.3348 23.8667 -5.14504 -29.2081 0.0598081 0.137039 -3.00651 -0.370314 14.6353 -24.234 0.0496218 0.113702 3.79732 -20.7143 1.85106 9.23673 -4.20556 2.0327 -5.60372 4.6888 -11.7703 -0.852353 -38.7721 -0.655187 -0.197729 0.738113 -0.01161 -2.32622 -40.4017 -6.04875 -0.74053 -0.969859 15.2806 0.779096 -9.8844 12.4959 2.48481e-17 -7.95139e-16 1.2424e-17 -9.23673 -4.20556 2.0327 -9.03427 -2.13278 16.0864 0.852353 -38.7721 -0.655187 2.46404 9.16442 -0.0371903 2.32622 -40.4017 -6.04875 -2.88788 -9.24149 -15.5442 -0.779096 -9.8844 12.4959 -5.08571e-16 -5.71022e-16 -1.27466e-14 
2.19303 91.7238 5.58379 7.12859 -6.1492 -1.12162 0 5.07867 -1.15138 -2.015 0.833771 0.396072 0 5.61661 1.07143 -1.57348 0.641978 0.110344 -1.02604e-17 5.98978 0.11501 -1.19939 0.647714 0.181977 -1.10457e-17 6.50583 -0.443523 -0.804032 0.221311 0.159969 -1.97295e-17 7.60548 -1.50593 -0.333982 -0.0148428 0.186345 -2.53307e-17 9.49737 -0.914492 0.201377 -0.870209 -0.0844976 -2.90401e-17 10.5513 1.57691 -0.0298446 0.874407 -0.124227 -1.29193e-17 4.78644 0.715339 0.724177 5.79437 -0.408564 -1.8116e-17 4.82109 0.421791 -0.236348 -3.6259 -0.393041 -2.00958e-17 4.83041 0.765062 -1.18395 -4.30177 1.7298 1.23299 -7.60731 7.53374 6.49257 3.11834 0.557006 12.9547 3.2495 -3.26872 -91.3554 24.8825 6.14514 29.2081 0.0598081 0.137039 2.27095 -0.207023 -11.0074 24.234 0.0496219 0.113701 -4.4213 -21.421 -2.03674 -1.23299 -7.60729 7.53365 -8.83634 2.79644 -2.0585 -12.9547 3.2495 -3.26872 91.9958 23.8748 -5.31674 -29.2081 0.0598081 0.137039 -2.9851 -0.364862 14.529 -24.234 0.0496218 0.113702 3.71804 -20.709 1.70452 9.23673 -4.20556 2.0327 -5.61877 4.71523 -11.8439 -0.852353 -38.7721 -0.655187 -0.215528 0.80458 -0.0125305 -2.32622 -40.4017 -6.04875 -0.651853 -0.934813 15.2671 0.779096 -9.8844 12.4959 2.48481e-17 -7.95139e-16 1.2424e-17 -9.23673 -4.20556 2.0327 -9.04264 -2.08466 16.2842 0.852353 -38.7721 -0.655187 2.45112 9.11695 -0.0359667 2.32622 -40.4017 -6.04875 -2.82502 -9.19214 -15.54 -0.779096 -9.8844 12.4959 -1.39149e-15 -5.34234e-16 -1.27098e-14 
2.21795 91.7213 5.57502 7.14613 -6.18207 -1.12825 0 5.07867 -1.15138 -2.06112 0.957132 0.384967 0 5.61661 1.07143 -1.60411 0.719282 0.0945053 -1.02604e-17 5.98978 0.11501 -1.2191 0.675042 0.165945 -1.10457e-17 6.50583 -0.443523 -0.810578 0.157962 0.141745 -1.97295e-17 7.60548 -1.50593 -0.331832 -0.116757 0.16804 -2.53307e-17 9.49737 -0.914492 0.207315 -1.02153 -0.108848 -2.90401e-17 10.5513 1.57691 -0.028224 0.880089 -0.127479 -1.29193e-17 4.78644 0.715339 0.74545 5.96002 -0.330649 -1.8116e-17 4.82109 0.421791 -0.247049 -3.67033 -0.357843 -2.00958e-17 4.83041 0.765062 -1.24142 -4.41672 1.71276 1.23299 -7.60731 7.53374 7.05383 3.19979 0.66896 12.9547 3.2495 -3.26872 -91.8506 25.37 6.59089 29.2081 0.0598081 0.137039 2.30885 -0.214254 -11.1933 24.234 0.0496219 0.113701 -4.61134 -21.8281 -2.07953 -1.23299 -7.60729 7.53365 -9.21177 2.85163 -2.12888 -12.9547 3.2495 -3.26872 92.5335 23.799 -5.55615 -29.2081 0.0598081 0.137039 -2.9824 -0.364178 14.5156 -24.234 0.0496218 0.113702 3.76811 -20.5715 1.64256 9.23673 -4.20556 2.0327 -5.65584 4.72771 -11.8685 -0.852353 -38.7721 -0.655187 -0.219349 0.818848 -0.0127254 -2.32622 -40.4017 -6.04875 -0.625226 -0.910008 15.2613 0.779096 -9.8844 12.4959 1.2811e-16 -7.91912e-16 9.1971e-18 -9.23673 -4.20556 2.0327 -9.08466 -2.06106 16.4499 0.852353 -38.7721 -0.655187 2.43118 9.04365 -0.0340991 2.32622 -40.4017 -6.04875 -2.66902 -9.20777 -15.5413 -0.779096 -9.8844 12.4959 -1.49475e-15 -5.2778e-16 -1.27066e-14 
2.25027 91.7088 5.56907 7.16193 -6.13348 -1.11361 0 5.07867 -1.15138 -2.09461 1.01107 0.36386 0 5.61661 1.07143 -1.62466 0.755546 0.0689571 -1.02604e-17 5.98978 0.11501 -1.23166 0.689775 0.140216 -1.10457e-17 6.50583 -0.443523 -0.814068 0.131814 0.115111 -1.97295e-17 7.60548 -1.50593 -0.332791 -0.156456 0.141202 -2.53307e-17 9.49737 -0.914492 0.203382 -1.07733 -0.138485 -2.90401e-17 10.5513 1.57691 -0.0287177 0.879983 -0.127612 -1.29193e-17 4.78644 0.715339 0.743845 5.90394 -0.242254 -1.8116e-17 4.82109 0.421791 -0.307059 -3.68677 -0.319252 -2.00958e-17 4.83041 0.765062 -1.24217 -4.46502 1.70444 1.23299 -7.60731 7.53374 7.29016 3.25891 0.719885 12.9547 3.2495 -3.26872 -92.1229 25.6117 6.94648 29.2081 0.0598081 0.137039 2.35238 -0.222718 -11.4069 24.234 0.0496219 0.113701 -4.67239 -22.075 -2.11364 -1.23299 -7.60729 7.53365 -9.2825 2.909 -2.10367 -12.9547 3.2495 -3.26872 92.7364 23.8167 -5.76282 -29.2081 0.0598081 0.137039 -2.98646 -0.365208 14.5357 -24.234 0.0496218 0.113702 3.76984 -20.6472 1.67603 9.23673 -4.20556 2.0327 -5.69228 4.68941 -11.9466 -0.852353 -38.7721 -0.655187 -0.212846 0.794563 -0.0123931 -2.32622 -40.4017 -6.04875 -0.609937 -0.943277 15.2609 0.779096 -9.8844 12.4959 2.15893e-16 -7.89169e-16 6.45388e-18 -9.23673 -4.20556 2.0327 -9.12841 -2.11048 16.5256 0.852353 -38.7721 -0.655187 2.41523 8.98502 -0.0326245 2.32622 -40.4017 -6.04875 -2.60308 -9.25052 -15.5412 -0.779096 -9.8844 12.4959 -1.58254e-15 -5.19067e-16 -1.27038e-14 
2.28499 91.6927 5.55643 7.17446 -6.04007 -1.11835 0 5.07867 -1.15138 -2.12048 1.03336 0.343295 0 5.61661 1.07143 -1.64092 0.7718 0.0432898 -1.02604e-17 5.98978 0.11501 -1.24161 0.69511 0.114266 -1.10457e-17 6.50583 -0.443523 -0.817745 0.115751 0.0886171 -1.97295e-17 7.60548 -1.50593 -0.336061 -0.1772 0.114742 -2.53307e-17 9.49737 -0.914492 0.195612 -1.09977 -0.166016 -2.90401e-17 10.5513 1.57691 -0.0304954 0.880418 -0.126428 -1.29193e-17 4.78644 0.715339 0.734707 5.74274 -0.157831 -1.8116e-17 4.82109 0.421791 -0.357672 -3.68452 -0.282382 -2.00958e-17 4.83041 0.765062 -1.23778 -4.45791 1.72011 1.23299 -7.60731 7.53374 7.30708 3.30884 0.740748 12.9547 3.2495 -3.26872 -92.1795 25.677 7.22542 29.2081 0.0598081 0.137039 2.39727 -0.231623 -11.6274 24.234 0.0496219 0.113701 -4.70577 -22.176 -2.13246 -1.23299 -7.60729 7.53365 -9.19471 2.96495 -2.05062 -12.9547 3.2495 -3.26872 92.7748 23.8248 -5.90967 -29.2081 0.0598081 0.137039 -2.99534 -0.367466 14.5799 -24.234 0.0496218 0.113702 3.72965 -20.7809 1.66783 9.23673 -4.20556 2.0327 -5.72641 4.60288 -12.0528 -0.852353 -38.7721 -0.655187 -0.205721 0.767957 -0.0120259 -2.32622 -40.4017 -6.04875 -0.576782 -0.997998 15.2599 0.779096 -9.8844 12.4959 -2.69459e-16 -8.04336e-16 2.16211e-17 -9.23673 -4.20556 2.0327 -9.16973 -2.26305 16.5561 0.852353 -38.7721 -0.655187 2.42274 9.01262 -0.0333165 2.32622 -40.4017 -6.04875 -2.5474 -9.30782 -15.5408 -0.779096 -9.8844 12.4959 -6.84137e-16 -5.59566e-16 -1.27351e-14 
2.31405 91.7932 5.64695 7.1783 -5.93327 -1.16632 0 5.07867 -1.15138 -2.14573 0.922526 0.332515 0 5.61661 1.07143 -1.65814 0.70017 0.0283449 -1.02604e-17 5.98978 0.11501 -1.25168 0.662999 0.0989883 -1.10457e-17 6.50583 -0.443523 -0.821211 0.147547 0.0732533 -1.97295e-17 7.60548 -1.50593 -0.336614 -0.105447 0.100006 -2.53307e-17 9.49737 -0.914492 0.195382 -0.99416 -0.182805 -2.90401e-17 10.5513 1.57691 -0.0312802 0.871611 -0.125952 -1.29193e-17 4.78644 0.715339 0.732811 5.63874 -0.103457 -1.8116e-17 4.82109 0.421791 -0.374058 -3.68591 -0.257975 -2.00958e-17 4.83041 0.765062 -1.25158 -4.49791 1.76557 1.23299 -7.60731 7.53374 7.27552 3.27163 0.803178 12.9547 3.2495 -3.26872 -92.1117 25.7444 7.41256 29.2081 0.0598081 0.137039 2.42757 -0.237735 -11.7762 24.234 0.0496219 0.113701 -4.79385 -22.2004 -2.12328 -1.23299 -7.60729 7.53365 -9.04947 2.93981 -2.0358 -12.9547 3.2495 -3.26872 92.7464 23.8128 -6.01546 -29.2081 0.0598081 0.137039 -3.0033 -0.369496 14.6194 -24.234 0.0496218 0.113702 3.67525 -20.9157 1.5528 9.23673 -4.20556 2.0327 -5.75368 4.56587 -12.1081 -0.852353 -38.7721 -0.655187 -0.175867 0.656478 -0.0104512 -2.32622 -40.4017 -6.04875 -0.669487 -0.599057 15.2558 0.779096 -9.8844 12.4959 -7.8414e-17 -7.98366e-16 1.5651e-17 -9.23673 -4.20556 2.0327 -9.20163 -2.3158 16.5881 0.852353 -38.7721 -0.655187 2.38498 8.87376 -0.0298716 2.32622 -40.4017 -6.04875 -2.36663 -8.96665 -15.5194 -0.779096 -9.8844 12.4959 9.55226e-17 -5.93127e-16 -1.27687e-14 
